<?xml version="1.0" standalone="no"?>
<!DOCTYPE svg PUBLIC "-//W3C//DTD SVG 20010904//EN"
 "http://www.w3.org/TR/2001/REC-SVG-20010904/DTD/svg10.dtd">
<svg version="1.0" xmlns="http://www.w3.org/2000/svg"
 width="260.000000pt" height="260.000000pt" viewBox="0 0 260.000000 260.000000"
 preserveAspectRatio="xMidYMid meet">
<metadata>
Created by potrace 1.11, written by Peter Selinger 2001-2013
</metadata>
<g transform="translate(0.000000,260.000000) scale(0.100000,-0.100000)"
fill="#000000" stroke="none">
<path d="M646 2379 c-23 -57 -30 -152 -17 -223 l11 -59 -40 -60 c-36 -53 -61
-117 -75 -188 -7 -35 -7 -148 -1 -191 3 -21 8 -53 11 -72 2 -18 9 -45 14 -60
7 -17 7 -26 1 -26 -6 0 -1 -9 10 -20 11 -11 20 -25 20 -31 0 -15 55 -86 99
-127 72 -68 191 -119 336 -143 l75 -13 -29 -28 c-16 -16 -38 -49 -48 -73 -20
-50 -41 -62 -118 -71 -97 -12 -136 12 -243 145 -50 63 -154 100 -182 66 -7 -9
6 -26 49 -63 44 -39 69 -71 96 -127 68 -136 120 -169 272 -170 l103 0 0 -105
0 -105 -103 -26 c-90 -24 -193 -62 -207 -79 -3 -3 -17 -13 -32 -23 -35 -22
-62 -73 -59 -111 7 -102 201 -193 496 -233 76 -10 358 -10 450 1 353 39 567
177 476 305 -42 59 -215 138 -344 156 -26 4 -49 11 -52 15 -2 4 -5 90 -6 191
-1 206 -9 242 -68 304 l-33 35 29 0 c54 1 204 39 266 69 34 16 81 46 104 65
44 38 98 118 109 161 5 22 12 25 53 26 25 1 54 1 64 0 9 -1 17 2 17 7 0 6 -27
8 -61 6 -59 -3 -61 -2 -54 19 13 43 16 84 17 207 2 165 -19 233 -101 345 -29
39 -36 55 -30 75 19 66 0 233 -30 263 -24 24 -151 -17 -284 -92 -46 -26 -119
-21 -110 8 4 14 3 14 -6 1 -13 -19 -71 -15 -87 6 -10 13 -12 13 -18 -1 -3 -9
-10 -14 -14 -11 -21 13 -182 7 -259 -9 -15 -4 -23 0 -26 12 -4 14 -5 15 -6 2
-1 -19 -71 -44 -71 -26 0 8 -4 7 -9 -2 -7 -11 -17 -8 -52 16 -74 50 -167 88
-236 98 l-50 6 -17 -42z m500 -1559 c-1 -120 -4 -170 -12 -170 -19 0 -21 18
-20 167 2 100 6 146 15 157 8 9 15 16 16 16 1 0 2 -76 1 -170z m331 125 c5
-16 9 -88 9 -160 -1 -107 -4 -130 -16 -133 -13 -2 -15 22 -16 168 -1 166 3
187 23 125z"/>
<path d="M283 1502 c-40 -2 -73 -7 -73 -12 0 -5 10 -7 22 -5 12 3 71 5 130 6
59 1 108 5 108 8 0 7 -70 8 -187 3z"/>
<path d="M486 1501 c-3 -3 6 -8 20 -9 13 -1 24 2 24 6 0 10 -38 13 -44 3z"/>
<path d="M2169 1500 c-6 -4 31 -8 83 -9 53 -1 118 -5 147 -10 28 -4 51 -4 51
0 0 5 -3 9 -7 9 -7 0 -120 7 -220 14 -23 1 -47 -1 -54 -4z"/>
<path d="M108 1485 c-5 -6 -46 -13 -76 -14 -13 -1 -20 -5 -17 -11 4 -6 10 -8
15 -5 5 3 28 8 52 11 48 7 54 9 40 18 -5 3 -11 3 -14 1z"/>
<path d="M144 1481 c5 -8 56 -3 56 5 0 2 -14 4 -31 4 -16 0 -28 -4 -25 -9z"/>
<path d="M2460 1481 c0 -6 12 -11 28 -11 15 0 42 -4 59 -9 18 -5 35 -6 38 -2
2 5 -18 11 -45 15 -28 4 -57 9 -65 12 -8 4 -15 1 -15 -5z"/>
<path d="M455 1439 c-29 -5 -19 -7 38 -6 42 0 77 3 77 7 0 9 -55 8 -115 -1z"/>
<path d="M2024 1441 c3 -4 32 -9 63 -9 98 -2 257 -22 368 -46 6 -2 36 -8 68
-15 32 -7 61 -11 63 -8 5 5 -77 24 -206 47 -107 19 -96 17 -303 35 -32 3 -56
1 -53 -4z"/>
<path d="M390 1430 c0 -5 5 -10 10 -10 6 0 10 5 10 10 0 6 -4 10 -10 10 -5 0
-10 -4 -10 -10z"/>
<path d="M242 1415 c-121 -22 -224 -46 -218 -52 2 -3 44 4 93 15 48 12 108 24
133 27 25 4 65 11 90 15 41 7 42 8 10 8 -19 0 -68 -6 -108 -13z"/>
<path d="M478 1135 c-3 -5 -9 -25 -13 -43 -5 -25 -3 -33 10 -38 26 -10 34 8
21 51 -6 22 -14 36 -18 30z"/>
</g>
</svg>
